<?xml version="1.0" encoding="UTF-8"?>
<svg width="168px" height="84px" viewBox="0 0 168 84" version="1.1" xmlns="http://www.w3.org/2000/svg" xmlns:xlink="http://www.w3.org/1999/xlink">
  <g id="Page-1" stroke="none" stroke-width="1" fill="none" fill-rule="evenodd">
    <path d="M66.1854248,24.6879651 C66.1854248,24.9848562 65.8699828,25.1332995 65.2390893,25.1332995 C65.1648665,25.1332995 64.7659251,25.1147441 64.0422531,25.0776327 C63.3185811,25.0405213 62.3444218,25.0219659 61.1197461,25.0219659 C61.008412,25.0219659 59.0415381,25.0590767 55.2190655,25.1332995 C54.7366174,25.1332995 54.4953971,25.0034116 54.4953971,24.7436319 C54.4953971,24.4467408 54.6995066,24.2982975 55.1077319,24.2982975 L55.5530662,24.2982975 L56.9447362,24.2426307 C57.501407,24.2055193 57.8261267,24.0756314 57.9189052,23.8529631 C58.0116837,23.6302948 58.0580722,22.8509674 58.0580722,21.5149576 L58.0580722,7.70959143 C58.0580722,5.55713111 57.7704633,4.02630945 57.1952368,3.11708052 C56.6200103,2.2078516 55.6458511,1.75324395 54.2727299,1.75324395 C53.3078339,1.75324395 52.4078963,2.04085287 51.5728901,2.61607933 C50.737884,3.1913058 50.1533884,3.92424465 49.819386,4.81491789 C49.6709404,5.37158866 49.5967188,7.43123962 49.5967188,10.9939326 L49.5967188,21.5149576 C49.5967188,22.7396333 49.6152742,23.444739 49.6523856,23.6302959 C49.7637197,24.0756325 50.0977172,24.2982975 50.6543879,24.2982975 L52.2687251,24.2982975 C52.7511731,24.2982975 52.9923935,24.4467408 52.9923935,24.7436319 C52.9923935,25.0034116 52.7140623,25.1332995 52.1573915,25.1332995 L51.7677239,25.1332995 C51.3966101,25.0590767 50.1348419,25.0219659 47.9823816,25.0219659 C47.2401539,25.0219659 46.2474392,25.0405213 45.0042079,25.0776327 C43.7609765,25.1147441 43.0094822,25.1332995 42.7497025,25.1332995 L42.1373677,25.1332995 C41.6920311,25.1332995 41.4693661,24.9848562 41.4693661,24.6879651 C41.4693661,24.5024082 41.5806986,24.3910757 41.8033669,24.3539643 C42.0260352,24.3168529 42.7682518,24.2982975 44.0300389,24.2982975 C44.623821,24.2611861 44.9392631,24.075632 44.9763745,23.7416295 L45.0320413,22.9622943 L45.0320413,7.43125744 C45.0320413,5.27879712 44.7629877,3.79436399 44.2248727,2.97791353 C43.6867576,2.16146306 42.7311538,1.75324395 41.3580325,1.75324395 C39.9849113,1.75324395 38.8437533,2.18001847 37.9345244,3.03358033 C37.0252955,3.88714218 36.5706878,4.96335619 36.5706878,6.26225466 L36.5706878,22.0716255 C36.5706878,23.1849671 36.6541872,23.8436843 36.8211884,24.0477969 C36.9881896,24.2519095 37.5355744,24.3539643 38.463359,24.3539643 L38.9086934,24.3539643 C39.1313617,24.3168529 39.3354712,24.2982975 39.5210282,24.2982975 C39.9292534,24.2982975 40.133363,24.4467408 40.133363,24.7436319 C40.133363,25.0034116 39.8921426,25.1332995 39.4096946,25.1332995 L38.8530266,25.1332995 C37.9623533,25.0219653 36.5706973,24.9848545 34.6780167,25.0219659 L29.2226704,25.1332995 C28.703111,25.1332995 28.4433352,24.9848562 28.4433352,24.6879651 C28.4433352,24.4281854 28.6845556,24.2982975 29.1670036,24.2982975 C30.5772362,24.2982975 31.3936744,24.2333536 31.6163427,24.1034637 C31.839011,23.9735739 31.9688989,23.7416312 32.0060103,23.4076287 L32.0060103,8.93426101 C32.0060103,6.15090715 31.9503441,4.51803071 31.8390099,4.03558271 C31.7276758,3.5531347 31.1895688,3.31191432 30.2246727,3.31191432 L29.4453376,3.31191432 C29.1113351,3.3490257 28.7587822,3.36758112 28.3876684,3.36758112 C27.9052204,3.36758112 27.664,3.23769322 27.664,2.97791353 C27.664,2.75524522 27.7474994,2.62535732 27.9145006,2.58824593 C28.0815018,2.55113455 28.6845528,2.49546831 29.7236716,2.42124554 C30.5772334,2.38413415 31.6441697,2.16146918 32.9245125,1.75324395 C34.2048553,1.34501872 34.9377941,0.99246585 35.1233511,0.695574772 C35.5315763,0.287349539 35.8284629,0.0832399841 36.0140198,0.0832399841 C36.1995768,0.0832399841 36.3109092,0.231683297 36.3480206,0.528574375 C36.385132,0.825465454 36.4222428,1.86456864 36.4593542,3.64591511 C37.9438096,1.27078648 40.2261255,0.0832399841 43.3063705,0.0832399841 C46.6092837,0.0832399841 48.6132685,1.32645273 49.3183848,3.81291551 C50.7657288,1.32645273 53.0851555,0.0832399841 56.2767346,0.0832399841 C59.0229771,0.0832399841 60.8785185,1.06667693 61.8434145,3.03358033 C62.3629739,4.0726991 62.6227497,5.79835261 62.6227497,8.21059262 L62.6227497,21.9602919 C62.6227497,23.222079 62.6876937,23.9179071 62.8175835,24.0477969 C62.9474733,24.1776868 63.5319689,24.2797415 64.5710877,24.3539643 L65.57309,24.2982975 C65.9813153,24.2611861 66.1854248,24.391074 66.1854248,24.6879651 L66.1854248,24.6879651 L66.1854248,24.6879651 Z M91.2354843,12.9979373 C91.2354843,16.5977417 90.1407149,19.6129964 87.9511432,22.0437921 C85.7615715,24.4745879 83.0339256,25.6899675 79.7681238,25.6899675 C76.3909877,25.6899675 73.5705648,24.4745879 71.3067703,22.0437921 C69.0429759,19.6129964 67.9110956,16.5977417 67.9110956,12.9979373 C67.9110956,9.28679884 69.0151427,6.20660011 71.2232701,3.75724871 C73.4313975,1.30789731 76.1868765,0.0832399841 79.4897898,0.0832399841 C82.8298144,0.0832399841 85.6224042,1.31717502 87.867643,3.78508211 C90.1128818,6.2529892 91.2354843,9.32391023 91.2354843,12.9979373 L91.2354843,12.9979373 L91.2354843,12.9979373 Z M86.1698056,12.9422705 C86.1698056,8.8600182 85.5389216,5.68704239 84.2771345,3.42324792 C83.3493499,1.7532356 81.7906951,0.918241967 79.6011234,0.918241967 C77.5228858,0.918241967 75.8992871,1.98517828 74.7302785,4.1190829 C73.5612698,6.25298753 72.9767743,9.21257608 72.9767743,12.9979373 C72.9767743,16.7461872 73.5983807,19.6686649 74.8416121,21.7654582 C76.0848435,23.8622514 77.8197747,24.9106323 80.0464578,24.9106323 C81.7535815,24.9106323 83.0153496,24.2611928 83.8318001,22.9622943 C85.3904782,20.5129429 86.1698056,17.1729684 86.1698056,12.9422705 L86.1698056,12.9422705 L86.1698056,12.9422705 Z M120.293553,3.36758112 C120.293553,5.07470482 119.532781,5.92825387 118.011215,5.92825387 C117.491655,5.92825387 117.018492,5.75197743 116.591711,5.39941928 C116.16493,5.04686112 115.951543,4.64791972 115.951543,4.2025831 C115.951543,4.05413756 116.007209,3.82219489 116.118543,3.50674812 C116.229878,3.19130134 116.285544,2.94080325 116.285544,2.75524633 C116.285544,2.27279833 116.025768,2.03157795 115.506209,2.03157795 C115.060872,2.03157795 114.634098,2.26352062 114.225872,2.72741293 C113.817647,3.19130524 113.613537,3.6644683 113.613537,4.1469163 C113.613537,4.25825046 113.706315,4.88913454 113.891871,6.03958747 C114.077428,7.19004039 114.170205,8.06214486 114.170205,8.65592701 C114.170205,11.1795012 113.298101,13.2948184 111.553866,15.0019421 C109.809631,16.7090658 107.638647,17.5626148 105.04085,17.5626148 C104.372846,17.5626148 103.148188,17.2842836 101.366842,16.7276129 C100.884394,16.5791673 100.568952,16.5049457 100.420506,16.5049457 C99.6411671,16.5049457 98.9360613,16.8203877 98.3051678,17.4512812 C97.6742742,18.0821748 97.3588322,18.7687251 97.3588322,19.5109528 C97.3588322,21.4407448 98.5278233,22.4056263 100.865841,22.4056263 C101.756514,22.4056263 103.185281,22.2386276 105.152184,21.9046251 C106.673751,21.6448455 108.065407,21.5149576 109.327194,21.5149576 C111.590988,21.5149576 113.36303,22.1087308 114.643373,23.2962951 C115.923716,24.4838594 116.563878,26.1352913 116.563878,28.2506402 C116.563878,31.4422193 115.200055,34.0956435 112.472368,36.2109925 C109.744681,38.3263414 106.302652,39.384 102.146177,39.384 C99.065932,39.384 96.6444504,38.7623936 94.8816597,37.5191622 C93.1188689,36.2759308 92.2374867,34.559555 92.2374867,32.3699833 C92.2374867,30.2546344 93.0539249,28.6588688 94.6868259,27.5826386 C95.5032763,27.0630792 96.8021553,26.5991939 98.5835018,26.1909687 C95.9485935,25.1518499 94.6311591,23.5560843 94.6311591,21.403624 C94.6311591,18.7316043 96.3382572,16.8760628 99.7525046,15.8369441 C97.5258215,14.092709 96.4124966,11.7918376 96.4124966,8.93426101 C96.4124966,6.2622413 97.2660457,4.11909098 98.9731694,2.50474574 C100.680293,0.890400496 102.925498,0.0832399841 105.708852,0.0832399841 C107.230419,0.0832399841 108.464354,0.287349539 109.410694,0.695574772 C110.357034,1.1038 111.461082,1.92023822 112.722869,3.14491392 C113.910433,1.40067884 115.376311,0.528574375 117.120546,0.528574375 C119.235895,0.528574375 120.293553,1.47490049 120.293553,3.36758112 L120.293553,3.36758112 L120.293553,3.36758112 Z M109.939529,8.87859421 C109.939529,3.49744341 108.455096,0.80690837 105.486185,0.80690837 C102.591497,0.80690837 101.144175,3.31188927 101.144175,8.32192622 C101.144175,13.9628567 102.684274,16.7832797 105.764519,16.7832797 C108.547873,16.7832797 109.939529,14.1484109 109.939529,8.87859421 L109.939529,8.87859421 L109.939529,8.87859421 Z M114.225872,30.1989782 C114.225872,27.1187332 112.407442,25.5786339 108.770526,25.5786339 C107.731407,25.5786339 106.200586,25.7456326 104.178015,26.0796351 C102.155445,26.4136375 100.643178,26.5806363 99.641171,26.5806363 C97.7484903,27.5826436 96.8021642,29.345408 96.8021642,31.8689821 C96.8021642,33.7616628 97.4794368,35.2832067 98.8340024,36.4336597 C100.188568,37.5841126 101.979165,38.1593304 104.205848,38.1593304 C107.026314,38.1593304 109.401407,37.3892807 111.331199,35.8491583 C113.260991,34.3090358 114.225872,32.4256613 114.225872,30.1989782 L114.225872,30.1989782 L114.225872,30.1989782 Z M142.78294,22.5169599 C142.78294,23.1478535 142.124223,23.8065707 140.806769,24.4931313 C139.489315,25.1796919 138.218269,25.5229671 136.993593,25.5229671 C134.432907,25.5229671 133.096918,24.2055327 132.985583,21.5706244 C131.575351,24.3168668 129.385812,25.6899675 126.416901,25.6899675 C124.821112,25.6899675 123.503677,25.2168044 122.464559,24.2704641 C121.42544,23.3241238 120.905888,22.1087442 120.905888,20.6242888 C120.905888,17.5811552 122.742874,15.1689514 126.416901,13.3876049 C127.678688,12.7938228 129.868227,12.2000495 132.985583,11.6062674 L132.985583,10.2145974 C132.985583,6.94879552 132.818585,4.79636749 132.484582,3.75724871 C131.8908,1.86456809 130.55481,0.918241967 128.476573,0.918241967 C127.177674,0.918241967 126.092183,1.27079483 125.220065,1.97591115 C124.347948,2.68102746 123.911895,3.57168733 123.911895,4.64791749 C123.911895,4.94480857 124.143838,5.09325188 124.60773,5.09325188 C125.071623,5.09325188 125.489119,5.31591685 125.860233,5.76125347 C126.231347,6.20659009 126.416901,6.70758627 126.416901,7.26425704 C126.416901,8.89715797 125.600463,9.71359619 123.967562,9.71359619 C123.114,9.71359619 122.408894,9.42598727 121.852224,8.85076081 C121.295553,8.27553434 121.017222,7.54259549 121.017222,6.65192225 C121.017222,4.90768717 121.703772,3.40469863 123.076893,2.14291154 C124.59846,0.769790305 126.713777,0.0832399841 129.422908,0.0832399841 C133.505161,0.0832399841 136.010142,1.19656483 136.937926,3.42324792 C137.271929,4.27680977 137.438927,5.96535245 137.438927,8.48892662 L137.438927,18.898618 C137.438927,20.6057417 137.457483,21.6077341 137.494594,21.9046251 C137.680151,23.240635 138.218258,23.9086299 139.108931,23.9086299 C140.14805,23.9086299 141.001599,23.5375216 141.669604,22.7952939 C142.040718,22.3870687 142.319049,22.1829591 142.504606,22.1829591 C142.690163,22.1829591 142.78294,22.2942916 142.78294,22.5169599 L142.78294,22.5169599 L142.78294,22.5169599 Z M132.985583,16.6162793 L132.985583,12.5526029 C130.20223,13.1834965 128.207523,14.0092124 127.001403,15.0297755 C125.795283,16.0503386 125.192232,17.4141615 125.192232,19.1212852 C125.192232,20.3088495 125.535507,21.2830088 126.222067,22.0437921 C126.908628,22.8045755 127.771455,23.1849615 128.810574,23.1849615 C130.406363,23.1849615 131.686687,22.2943016 132.651583,20.5129552 C132.874251,20.1047299 132.985583,18.805851 132.985583,16.6162793 L132.985583,16.6162793 L132.985583,16.6162793 Z M168,24.6879651 C168,24.9848562 167.721669,25.1332995 167.164998,25.1332995 L166.496996,25.1332995 C165.828992,25.0590767 164.919776,25.0219659 163.769323,25.0219659 C160.132408,25.0219659 157.97998,25.0590767 157.311975,25.1332995 L156.922307,25.1332995 C156.439859,25.1332995 156.198639,25.0034116 156.198639,24.7436319 C156.198639,24.558075 156.300693,24.4467425 156.504806,24.4096311 C156.708919,24.3725197 157.423302,24.3354089 158.647978,24.2982975 C159.353094,24.2611861 159.761313,24.1591313 159.872647,23.9921301 C159.983982,23.8251289 160.039648,23.2220779 160.039648,22.1829591 L160.039648,11.4949338 C160.039648,7.44979281 159.891204,5.03758898 159.594313,4.2582499 C158.96342,2.58823758 157.701652,1.75324395 155.808971,1.75324395 C153.953402,1.75324395 152.394747,2.56968217 151.13296,4.2025831 C150.761846,4.6850311 150.576292,5.35302601 150.576292,6.20658786 L150.631959,23.5746291 C150.631959,24.0199657 151.021622,24.2611861 151.800962,24.2982975 L153.470965,24.3539643 C153.842079,24.3539643 154.027633,24.4838522 154.027633,24.7436319 C154.027633,25.0034116 153.804969,25.1332995 153.359632,25.1332995 L152.468963,25.1332995 C151.652513,25.0590767 150.353634,25.0219659 148.572287,25.0219659 C148.164062,25.0219659 147.28268,25.0405213 145.928114,25.0776327 C144.573549,25.1147441 143.784944,25.1332995 143.562275,25.1332995 L143.228274,25.1332995 C142.671604,25.1332995 142.393273,25.0034116 142.393273,24.7436319 C142.393273,24.4838522 142.72727,24.3168535 143.395275,24.2426307 L144.786945,24.2426307 C145.343616,24.2426307 145.677613,24.1127428 145.788947,23.8529631 L145.955948,23.0179611 L145.955948,10.882599 C145.955948,6.6519011 145.918837,4.31391893 145.844614,3.86858231 C145.770391,3.42324569 145.306506,3.20058072 144.452944,3.20058072 C144.193164,3.20058072 143.747834,3.23769155 143.116941,3.31191432 L142.838607,3.31191432 C142.096379,3.31191432 141.725271,3.18202642 141.725271,2.92224673 C141.725271,2.58824426 142.114935,2.42124554 142.894274,2.42124554 C144.007615,2.38413415 145.213717,2.1800246 146.512616,1.80891075 C147.811514,1.4377969 148.720729,1.01102238 149.240289,0.528574375 C149.574291,0.231683297 149.834067,0.0832399841 150.019624,0.0832399841 C150.279404,0.0832399841 150.409292,0.435792852 150.409292,1.14090916 L150.409292,3.81291551 C152.339084,1.32645273 154.825509,0.0832399841 157.868643,0.0832399841 C160.540662,0.0832399841 162.470425,1.06667693 163.65799,3.03358033 C164.325995,4.14692187 164.659992,6.26223907 164.659992,9.3795954 L164.659992,22.0716255 C164.659992,23.2591899 164.715658,23.9086294 164.826992,24.0199635 C165.049661,24.2426318 165.587768,24.3539643 166.44133,24.3539643 C166.552664,24.3539643 166.756773,24.3354089 167.053664,24.2982975 L167.443332,24.2982975 C167.814446,24.2982975 168,24.4281854 168,24.6879651 L168,24.6879651 Z M66.1854248,68.6879651 C66.1854248,68.9848562 65.8699828,69.1332995 65.2390893,69.1332995 C65.1648665,69.1332995 64.7659251,69.1147441 64.0422531,69.0776327 C63.3185811,69.0405213 62.3444218,69.0219659 61.1197461,69.0219659 C61.008412,69.0219659 59.0415381,69.0590767 55.2190655,69.1332995 C54.7366174,69.1332995 54.4953971,69.0034116 54.4953971,68.7436319 C54.4953971,68.4467408 54.6995066,68.2982975 55.1077319,68.2982975 L55.5530662,68.2982975 L56.9447362,68.2426307 C57.501407,68.2055193 57.8261267,68.0756314 57.9189052,67.8529631 C58.0116837,67.6302948 58.0580722,66.8509674 58.0580722,65.5149576 L58.0580722,51.7095914 C58.0580722,49.5571311 57.7704633,48.0263095 57.1952368,47.1170805 C56.6200103,46.2078516 55.6458511,45.753244 54.2727299,45.753244 C53.3078339,45.753244 52.4078963,46.0408529 51.5728901,46.6160793 C50.737884,47.1913058 50.1533884,47.9242447 49.819386,48.8149179 C49.6709404,49.3715887 49.5967188,51.4312396 49.5967188,54.9939326 L49.5967188,65.5149576 C49.5967188,66.7396333 49.6152742,67.444739 49.6523856,67.6302959 C49.7637197,68.0756325 50.0977172,68.2982975 50.6543879,68.2982975 L52.2687251,68.2982975 C52.7511731,68.2982975 52.9923935,68.4467408 52.9923935,68.7436319 C52.9923935,69.0034116 52.7140623,69.1332995 52.1573915,69.1332995 L51.7677239,69.1332995 C51.3966101,69.0590767 50.1348419,69.0219659 47.9823816,69.0219659 C47.2401539,69.0219659 46.2474392,69.0405213 45.0042079,69.0776327 C43.7609765,69.1147441 43.0094822,69.1332995 42.7497025,69.1332995 L42.1373677,69.1332995 C41.6920311,69.1332995 41.4693661,68.9848562 41.4693661,68.6879651 C41.4693661,68.5024082 41.5806986,68.3910757 41.8033669,68.3539643 C42.0260352,68.3168529 42.7682518,68.2982975 44.0300389,68.2982975 C44.623821,68.2611861 44.9392631,68.075632 44.9763745,67.7416295 L45.0320413,66.9622943 L45.0320413,51.4312574 C45.0320413,49.2787971 44.7629877,47.794364 44.2248727,46.9779135 C43.6867576,46.1614631 42.7311538,45.753244 41.3580325,45.753244 C39.9849113,45.753244 38.8437533,46.1800185 37.9345244,47.0335803 C37.0252955,47.8871422 36.5706878,48.9633562 36.5706878,50.2622547 L36.5706878,66.0716255 C36.5706878,67.1849671 36.6541872,67.8436843 36.8211884,68.0477969 C36.9881896,68.2519095 37.5355744,68.3539643 38.463359,68.3539643 L38.9086934,68.3539643 C39.1313617,68.3168529 39.3354712,68.2982975 39.5210282,68.2982975 C39.9292534,68.2982975 40.133363,68.4467408 40.133363,68.7436319 C40.133363,69.0034116 39.8921426,69.1332995 39.4096946,69.1332995 L38.8530266,69.1332995 C37.9623533,69.0219653 36.5706973,68.9848545 34.6780167,69.0219659 L29.2226704,69.1332995 C28.703111,69.1332995 28.4433352,68.9848562 28.4433352,68.6879651 C28.4433352,68.4281854 28.6845556,68.2982975 29.1670036,68.2982975 C30.5772362,68.2982975 31.3936744,68.2333536 31.6163427,68.1034637 C31.839011,67.9735739 31.9688989,67.7416312 32.0060103,67.4076287 L32.0060103,52.934261 C32.0060103,50.1509071 31.9503441,48.5180307 31.8390099,48.0355827 C31.7276758,47.5531347 31.1895688,47.3119143 30.2246727,47.3119143 L29.4453376,47.3119143 C29.1113351,47.3490257 28.7587822,47.3675811 28.3876684,47.3675811 C27.9052204,47.3675811 27.664,47.2376932 27.664,46.9779135 C27.664,46.7552452 27.7474994,46.6253573 27.9145006,46.5882459 C28.0815018,46.5511345 28.6845528,46.4954683 29.7236716,46.4212455 C30.5772334,46.3841342 31.6441697,46.1614692 32.9245125,45.753244 C34.2048553,45.3450187 34.9377941,44.9924659 35.1233511,44.6955748 C35.5315763,44.2873495 35.8284629,44.08324 36.0140198,44.08324 C36.1995768,44.08324 36.3109092,44.2316833 36.3480206,44.5285744 C36.385132,44.8254655 36.4222428,45.8645686 36.4593542,47.6459151 C37.9438096,45.2707865 40.2261255,44.08324 43.3063705,44.08324 C46.6092837,44.08324 48.6132685,45.3264527 49.3183848,47.8129155 C50.7657288,45.3264527 53.0851555,44.08324 56.2767346,44.08324 C59.0229771,44.08324 60.8785185,45.0666769 61.8434145,47.0335803 C62.3629739,48.0726991 62.6227497,49.7983526 62.6227497,52.2105926 L62.6227497,65.9602919 C62.6227497,67.222079 62.6876937,67.9179071 62.8175835,68.0477969 C62.9474733,68.1776868 63.5319689,68.2797415 64.5710877,68.3539643 L65.57309,68.2982975 C65.9813153,68.2611861 66.1854248,68.391074 66.1854248,68.6879651 L66.1854248,68.6879651 Z M91.2354843,56.9979373 C91.2354843,60.5977417 90.1407149,63.6129964 87.9511432,66.0437921 C85.7615715,68.4745879 83.0339256,69.6899675 79.7681238,69.6899675 C76.3909877,69.6899675 73.5705648,68.4745879 71.3067703,66.0437921 C69.0429759,63.6129964 67.9110956,60.5977417 67.9110956,56.9979373 C67.9110956,53.2867988 69.0151427,50.2066001 71.2232701,47.7572487 C73.4313975,45.3078973 76.1868765,44.08324 79.4897898,44.08324 C82.8298144,44.08324 85.6224042,45.317175 87.867643,47.7850821 C90.1128818,50.2529892 91.2354843,53.3239102 91.2354843,56.9979373 L91.2354843,56.9979373 Z M86.1698056,56.9422705 C86.1698056,52.8600182 85.5389216,49.6870424 84.2771345,47.4232479 C83.3493499,45.7532356 81.7906951,44.918242 79.6011234,44.918242 C77.5228858,44.918242 75.8992871,45.9851783 74.7302785,48.1190829 C73.5612698,50.2529875 72.9767743,53.2125761 72.9767743,56.9979373 C72.9767743,60.7461872 73.5983807,63.6686649 74.8416121,65.7654582 C76.0848435,67.8622514 77.8197747,68.9106323 80.0464578,68.9106323 C81.7535815,68.9106323 83.0153496,68.2611928 83.8318001,66.9622943 C85.3904782,64.5129429 86.1698056,61.1729684 86.1698056,56.9422705 L86.1698056,56.9422705 Z M120.293553,47.3675811 C120.293553,49.0747048 119.532781,49.9282539 118.011215,49.9282539 C117.491655,49.9282539 117.018492,49.7519774 116.591711,49.3994193 C116.16493,49.0468611 115.951543,48.6479197 115.951543,48.2025831 C115.951543,48.0541376 116.007209,47.8221949 116.118543,47.5067481 C116.229878,47.1913013 116.285544,46.9408033 116.285544,46.7552463 C116.285544,46.2727983 116.025768,46.0315779 115.506209,46.0315779 C115.060872,46.0315779 114.634098,46.2635206 114.225872,46.7274129 C113.817647,47.1913052 113.613537,47.6644683 113.613537,48.1469163 C113.613537,48.2582505 113.706315,48.8891345 113.891871,50.0395875 C114.077428,51.1900404 114.170205,52.0621449 114.170205,52.655927 C114.170205,55.1795012 113.298101,57.2948184 111.553866,59.0019421 C109.809631,60.7090658 107.638647,61.5626148 105.04085,61.5626148 C104.372846,61.5626148 103.148188,61.2842836 101.366842,60.7276129 C100.884394,60.5791673 100.568952,60.5049457 100.420506,60.5049457 C99.6411671,60.5049457 98.9360613,60.8203877 98.3051678,61.4512812 C97.6742742,62.0821748 97.3588322,62.7687251 97.3588322,63.5109528 C97.3588322,65.4407448 98.5278233,66.4056263 100.865841,66.4056263 C101.756514,66.4056263 103.185281,66.2386276 105.152184,65.9046251 C106.673751,65.6448455 108.065407,65.5149576 109.327194,65.5149576 C111.590988,65.5149576 113.36303,66.1087308 114.643373,67.2962951 C115.923716,68.4838594 116.563878,70.1352913 116.563878,72.2506402 C116.563878,75.4422193 115.200055,78.0956435 112.472368,80.2109925 C109.744681,82.3263414 106.302652,83.384 102.146177,83.384 C99.065932,83.384 96.6444504,82.7623936 94.8816597,81.5191622 C93.1188689,80.2759308 92.2374867,78.559555 92.2374867,76.3699833 C92.2374867,74.2546344 93.0539249,72.6588688 94.6868259,71.5826386 C95.5032763,71.0630792 96.8021553,70.5991939 98.5835018,70.1909687 C95.9485935,69.1518499 94.6311591,67.5560843 94.6311591,65.403624 C94.6311591,62.7316043 96.3382572,60.8760628 99.7525046,59.8369441 C97.5258215,58.092709 96.4124966,55.7918376 96.4124966,52.934261 C96.4124966,50.2622413 97.2660457,48.119091 98.9731694,46.5047457 C100.680293,44.8904005 102.925498,44.08324 105.708852,44.08324 C107.230419,44.08324 108.464354,44.2873495 109.410694,44.6955748 C110.357034,45.1038 111.461082,45.9202382 112.722869,47.1449139 C113.910433,45.4006788 115.376311,44.5285744 117.120546,44.5285744 C119.235895,44.5285744 120.293553,45.4749005 120.293553,47.3675811 L120.293553,47.3675811 Z M109.939529,52.8785942 C109.939529,47.4974434 108.455096,44.8069084 105.486185,44.8069084 C102.591497,44.8069084 101.144175,47.3118893 101.144175,52.3219262 C101.144175,57.9628567 102.684274,60.7832797 105.764519,60.7832797 C108.547873,60.7832797 109.939529,58.1484109 109.939529,52.8785942 L109.939529,52.8785942 Z M114.225872,74.1989782 C114.225872,71.1187332 112.407442,69.5786339 108.770526,69.5786339 C107.731407,69.5786339 106.200586,69.7456326 104.178015,70.0796351 C102.155445,70.4136375 100.643178,70.5806363 99.641171,70.5806363 C97.7484903,71.5826436 96.8021642,73.345408 96.8021642,75.8689821 C96.8021642,77.7616628 97.4794368,79.2832067 98.8340024,80.4336597 C100.188568,81.5841126 101.979165,82.1593304 104.205848,82.1593304 C107.026314,82.1593304 109.401407,81.3892807 111.331199,79.8491583 C113.260991,78.3090358 114.225872,76.4256613 114.225872,74.1989782 L114.225872,74.1989782 Z M142.78294,66.5169599 C142.78294,67.1478535 142.124223,67.8065707 140.806769,68.4931313 C139.489315,69.1796919 138.218269,69.5229671 136.993593,69.5229671 C134.432907,69.5229671 133.096918,68.2055327 132.985583,65.5706244 C131.575351,68.3168668 129.385812,69.6899675 126.416901,69.6899675 C124.821112,69.6899675 123.503677,69.2168044 122.464559,68.2704641 C121.42544,67.3241238 120.905888,66.1087442 120.905888,64.6242888 C120.905888,61.5811552 122.742874,59.1689514 126.416901,57.3876049 C127.678688,56.7938228 129.868227,56.2000495 132.985583,55.6062674 L132.985583,54.2145974 C132.985583,50.9487955 132.818585,48.7963675 132.484582,47.7572487 C131.8908,45.8645681 130.55481,44.918242 128.476573,44.918242 C127.177674,44.918242 126.092183,45.2707948 125.220065,45.9759111 C124.347948,46.6810275 123.911895,47.5716873 123.911895,48.6479175 C123.911895,48.9448086 124.143838,49.0932519 124.60773,49.0932519 C125.071623,49.0932519 125.489119,49.3159169 125.860233,49.7612535 C126.231347,50.2065901 126.416901,50.7075863 126.416901,51.264257 C126.416901,52.897158 125.600463,53.7135962 123.967562,53.7135962 C123.114,53.7135962 122.408894,53.4259873 121.852224,52.8507608 C121.295553,52.2755343 121.017222,51.5425955 121.017222,50.6519223 C121.017222,48.9076872 121.703772,47.4046986 123.076893,46.1429115 C124.59846,44.7697903 126.713777,44.08324 129.422908,44.08324 C133.505161,44.08324 136.010142,45.1965648 136.937926,47.4232479 C137.271929,48.2768098 137.438927,49.9653524 137.438927,52.4889266 L137.438927,62.898618 C137.438927,64.6057417 137.457483,65.6077341 137.494594,65.9046251 C137.680151,67.240635 138.218258,67.9086299 139.108931,67.9086299 C140.14805,67.9086299 141.001599,67.5375216 141.669604,66.7952939 C142.040718,66.3870687 142.319049,66.1829591 142.504606,66.1829591 C142.690163,66.1829591 142.78294,66.2942916 142.78294,66.5169599 L142.78294,66.5169599 Z M14,34 L14,23 L11,23 L11,34 L1.8369702e-16,34 L0,37 L11,37 L11,48 L14,48 L14,37 L25,37 L25,34 L14,34 L14,34 Z M132.985583,60.6162793 C132.985583,62.805851 132.874251,64.1047299 132.651583,64.5129552 C131.686687,66.2943016 130.406363,67.1849615 128.810574,67.1849615 C127.771455,67.1849615 126.908628,66.8045755 126.222067,66.0437921 C125.535507,65.2830088 125.192232,64.3088495 125.192232,63.1212852 C125.192232,61.4141615 125.795283,60.0503386 127.001403,59.0297755 C128.207523,58.0092124 130.20223,57.1834965 132.985583,56.5526029 L132.985583,60.6162793 L132.985583,60.6162793 Z M168,68.6879651 C168,68.9848562 167.721669,69.1332995 167.164998,69.1332995 L166.496996,69.1332995 C165.828992,69.0590767 164.919776,69.0219659 163.769323,69.0219659 C160.132408,69.0219659 157.97998,69.0590767 157.311975,69.1332995 L156.922307,69.1332995 C156.439859,69.1332995 156.198639,69.0034116 156.198639,68.7436319 C156.198639,68.558075 156.300693,68.4467425 156.504806,68.4096311 C156.708919,68.3725197 157.423302,68.3354089 158.647978,68.2982975 C159.353094,68.2611861 159.761313,68.1591313 159.872647,67.9921301 C159.983982,67.8251289 160.039648,67.2220779 160.039648,66.1829591 L160.039648,55.4949338 C160.039648,51.4497928 159.891204,49.037589 159.594313,48.2582499 C158.96342,46.5882376 157.701652,45.753244 155.808971,45.753244 C153.953402,45.753244 152.394747,46.5696822 151.13296,48.2025831 C150.761846,48.6850311 150.576292,49.353026 150.576292,50.2065879 L150.631959,67.5746291 C150.631959,68.0199657 151.021622,68.2611861 151.800962,68.2982975 L153.470965,68.3539643 C153.842079,68.3539643 154.027633,68.4838522 154.027633,68.7436319 C154.027633,69.0034116 153.804969,69.1332995 153.359632,69.1332995 L152.468963,69.1332995 C151.652513,69.0590767 150.353634,69.0219659 148.572287,69.0219659 C148.164062,69.0219659 147.28268,69.0405213 145.928114,69.0776327 C144.573549,69.1147441 143.784944,69.1332995 143.562275,69.1332995 L143.228274,69.1332995 C142.671604,69.1332995 142.393273,69.0034116 142.393273,68.7436319 C142.393273,68.4838522 142.72727,68.3168535 143.395275,68.2426307 L144.786945,68.2426307 C145.343616,68.2426307 145.677613,68.1127428 145.788947,67.8529631 L145.955948,67.0179611 L145.955948,54.882599 C145.955948,50.6519011 145.918837,48.3139189 145.844614,47.8685823 C145.770391,47.4232457 145.306506,47.2005807 144.452944,47.2005807 C144.193164,47.2005807 143.747834,47.2376916 143.116941,47.3119143 L142.838607,47.3119143 C142.096379,47.3119143 141.725271,47.1820264 141.725271,46.9222467 C141.725271,46.5882443 142.114935,46.4212455 142.894274,46.4212455 C144.007615,46.3841342 145.213717,46.1800246 146.512616,45.8089107 C147.811514,45.4377969 148.720729,45.0110224 149.240289,44.5285744 C149.574291,44.2316833 149.834067,44.08324 150.019624,44.08324 C150.279404,44.08324 150.409292,44.4357929 150.409292,45.1409092 L150.409292,47.8129155 C152.339084,45.3264527 154.825509,44.08324 157.868643,44.08324 C160.540662,44.08324 162.470425,45.0666769 163.65799,47.0335803 C164.325995,48.1469219 164.659992,50.2622391 164.659992,53.3795954 L164.659992,66.0716255 C164.659992,67.2591899 164.715658,67.9086294 164.826992,68.0199635 C165.049661,68.2426318 165.587768,68.3539643 166.44133,68.3539643 C166.552664,68.3539643 166.756773,68.3354089 167.053664,68.2982975 L167.443332,68.2982975 C167.814446,68.2982975 168,68.4281854 168,68.6879651 L168,68.6879651 Z" id="Combined-Shape" fill="#390B50"></path>
  </g>
</svg>
